<svg width="172" height="86" viewBox="0 0 172 86" fill="none" xmlns="http://www.w3.org/2000/svg">
<path d="M-7.74043e-06 86C-6.75311e-06 74.7063 2.22445 63.5232 6.54635 53.0892C10.8683 42.6552 17.203 33.1747 25.1888 25.1888C33.1747 17.203 42.6552 10.8683 53.0892 6.54636C63.5232 2.22446 74.7063 6.7531e-06 86 7.74043e-06C97.2937 8.72775e-06 108.477 2.22447 118.911 6.54637C129.345 10.8683 138.825 17.203 146.811 25.1888C154.797 33.1747 161.132 42.6552 165.454 53.0892C169.776 63.5232 172 74.7063 172 86L154.8 86C154.8 76.9651 153.02 68.0186 149.563 59.6714C146.105 51.3242 141.038 43.7397 134.649 37.3511C128.26 30.9624 120.676 25.8946 112.329 22.4371C103.981 18.9796 95.035 17.2 86 17.2C76.9651 17.2 68.0186 18.9796 59.6714 22.4371C51.3242 25.8946 43.7397 30.9624 37.3511 37.351C30.9624 43.7397 25.8946 51.3242 22.4371 59.6714C18.9796 68.0186 17.2 76.9651 17.2 86L-7.74043e-06 86Z" fill="#F4F4F4"/>
</svg>
