<svg width="86" height="86" viewBox="0 0 86 86" fill="none" xmlns="http://www.w3.org/2000/svg">
<path d="M-7.74043e-06 86C-6.75311e-06 74.7063 2.22445 63.5232 6.54635 53.0892C10.8683 42.6552 17.203 33.1747 25.1888 25.1888C33.1747 17.203 42.6552 10.8683 53.0892 6.54636C63.5232 2.22446 74.7063 6.7531e-06 86 7.74043e-06L86 17.2C76.9651 17.2 68.0186 18.9796 59.6714 22.4371C51.3242 25.8946 43.7397 30.9624 37.3511 37.351C30.9624 43.7397 25.8946 51.3242 22.4371 59.6714C18.9796 68.0186 17.2 76.9651 17.2 86L-7.74043e-06 86Z" fill="#196BB3"/>
</svg>
