<svg width="40" height="40" viewBox="0 0 40 40" fill="none" xmlns="http://www.w3.org/2000/svg">
<path d="M20.0002 38.1817C30.0417 38.1817 38.182 30.0415 38.182 19.9999C38.182 9.95839 30.0417 1.81812 20.0002 1.81812C9.95863 1.81812 1.81836 9.95839 1.81836 19.9999C1.81836 30.0415 9.95863 38.1817 20.0002 38.1817Z" fill="#FFD93B"/>
<path d="M38.1819 19.9998C38.1819 30.0453 30.0399 38.1816 20.0001 38.1816C14.2842 38.1816 9.18191 35.5453 5.84668 31.4146C8.966 33.9373 12.9376 35.443 17.2614 35.443C27.3012 35.443 35.4433 27.3067 35.4433 17.2612C35.4433 12.9373 33.9376 8.96575 31.4149 5.84644C35.5398 9.18166 38.1819 14.2839 38.1819 19.9998Z" fill="#F4C534"/>
<path d="M19.2946 17.4488C19.2946 21.2726 16.6355 24.3692 13.3571 24.3692C10.0673 24.3692 7.4082 21.2726 7.4082 17.4488C7.4082 13.6249 10.0673 10.5283 13.3571 10.5283C16.6355 10.5283 19.2946 13.6249 19.2946 17.4488Z" fill="white"/>
<path d="M15.1219 20.2886C16.6419 20.2886 17.8742 18.9256 17.8742 17.2443C17.8742 15.5629 16.6419 14.2 15.1219 14.2C13.6019 14.2 12.3696 15.5629 12.3696 17.2443C12.3696 18.9256 13.6019 20.2886 15.1219 20.2886Z" fill="#3E4347"/>
<path d="M16.7886 16.2408C16.6273 16.493 16.2273 16.5396 15.9023 16.3283C15.5761 16.1283 15.4398 15.7544 15.6011 15.5021C15.7534 15.2385 16.1511 15.2021 16.4773 15.4135C16.8023 15.6146 16.9386 15.9885 16.7886 16.2408Z" fill="#5A5F63"/>
<path d="M21.0444 17.4488C21.0444 21.2726 23.7035 24.3692 26.9819 24.3692C30.2717 24.3692 32.9308 21.2726 32.9308 17.4488C32.9308 13.6249 30.2717 10.5283 26.9819 10.5283C23.7035 10.5283 21.0444 13.6249 21.0444 17.4488Z" fill="white"/>
<path d="M25.2171 20.2886C26.7372 20.2886 27.9694 18.9256 27.9694 17.2443C27.9694 15.5629 26.7372 14.2 25.2171 14.2C23.6971 14.2 22.4648 15.5629 22.4648 17.2443C22.4648 18.9256 23.6971 20.2886 25.2171 20.2886Z" fill="#3E4347"/>
<path d="M26.8833 16.2408C26.722 16.493 26.322 16.5396 25.997 16.3283C25.6708 16.1283 25.5345 15.7544 25.6958 15.5021C25.8481 15.2385 26.2458 15.2021 26.572 15.4135C26.8981 15.6146 27.0345 15.9885 26.8833 16.2408Z" fill="#5A5F63"/>
<path d="M25.6307 29.4716C24.7057 27.8022 23.3148 26.2988 20.7807 26.2988C18.2466 26.2988 15.2932 27.8022 14.3682 29.4716C17.1761 27.5784 20.9295 27.5784 25.6307 29.4716Z" fill="#3E4347"/>
</svg>
