<svg width="40" height="40" viewBox="0 0 40 40" fill="none" xmlns="http://www.w3.org/2000/svg">
<path d="M19.7594 38.1817C29.668 38.1817 37.7005 30.1492 37.7005 20.2406C37.7005 10.3321 29.668 2.29956 19.7594 2.29956C9.85085 2.29956 1.81836 10.3321 1.81836 20.2406C1.81836 30.1492 9.85085 38.1817 19.7594 38.1817Z" fill="#FFD93B"/>
<path d="M31.3584 24.676C30.3152 30.1375 25.5163 34.2523 19.764 34.2523C14.0003 34.2523 9.20136 30.1375 8.16953 24.676C8.0684 24.1488 8.56158 23.6999 9.0775 23.8465C16.1867 25.809 23.3072 25.7976 30.4504 23.8351C30.9663 23.6999 31.4595 24.1488 31.3584 24.676Z" fill="#3E4347"/>
<path d="M10.2983 24.1396C12.0063 27.4181 15.3927 28.3817 19.7177 28.3817C24.0269 28.3817 27.3985 27.4215 29.1133 24.1658C22.8314 25.6749 16.5586 25.6703 10.2983 24.1396Z" fill="white"/>
<path d="M37.7001 20.2407C37.7001 30.1533 29.6659 38.1818 19.759 38.1818C14.1192 38.1818 9.08391 35.5806 5.79297 31.5044C8.87141 33.9942 12.7896 35.4795 17.0567 35.4795C26.9636 35.4795 34.9978 27.451 34.9978 17.5384C34.9978 13.2713 33.5125 9.35196 31.0227 6.27466C35.0932 9.5656 37.7001 14.5997 37.7001 20.2407Z" fill="#F4C534"/>
<path d="M18.0622 13.228C18.0622 17.1235 13.4451 21.9599 8.72117 20.1428C6.56206 19.3019 4.99727 17.2587 4.75295 14.9405C4.52908 12.3871 5.82796 9.9723 8.06207 8.77001C11.7121 6.91659 18.0622 8.88024 18.0622 13.228Z" fill="white"/>
<path d="M30.807 20.1428C28.4933 21.0326 26.1536 20.3951 24.2854 18.7485C21.2865 16.1291 19.9944 11.6484 23.924 9.24837C26.1683 7.887 29.3286 7.68472 31.4354 8.76996C36.1514 11.2836 35.8491 18.1803 30.807 20.1428Z" fill="white"/>
<path d="M36.2864 7.6986H35.6909C34.0421 7.6986 32.3716 7.60314 30.7761 7.19859C27.8295 6.4429 24.3499 7.34746 22.4033 9.36907C21.776 10.0077 20.8931 10.3157 19.9988 10.3157H19.5522C18.6476 10.3157 17.7544 10.0066 17.1271 9.35884C15.1476 7.33723 11.6464 6.4429 8.7316 7.19859C7.14636 7.60314 5.49748 7.6986 3.87019 7.6986H3.23155C2.83836 7.6986 2.51904 8.01792 2.51904 8.42247V10.6464C2.51904 10.9339 2.70995 11.1566 2.96564 11.285C3.29519 11.4543 3.51905 11.7952 3.51905 12.1895C3.51905 12.2725 3.50882 12.3691 3.47587 12.4543C1.52926 19.6669 10.0191 25.4544 16.0294 19.6567C17.2953 18.4021 18.2101 16.9544 18.6249 15.3168C18.7522 14.8066 19.2317 14.4759 19.7635 14.4759C20.2851 14.4759 20.7738 14.8055 20.8908 15.3168C21.3056 16.9555 22.2204 18.4021 23.4863 19.6567C29.4659 25.434 37.9864 19.7203 36.0398 12.4441C35.9125 11.9657 36.1466 11.4975 36.55 11.285C36.8057 11.1566 36.9966 10.9225 36.9966 10.6361V8.42247C36.9989 8.01678 36.6796 7.6986 36.2864 7.6986ZM14.8817 18.3476C10.7543 21.9965 5.73271 19.0919 5.28611 14.8793C5.07361 12.5384 6.2759 10.3373 8.31796 9.24066C11.5634 7.58041 17.5317 9.2827 17.5317 13.2305C17.5305 15.1987 16.3385 17.0816 14.8817 18.3476ZM34.233 14.8793C33.7864 19.0919 28.775 21.9965 24.6363 18.3476C23.1897 17.0805 21.9976 15.1975 21.9976 13.2305C21.9976 9.2827 27.9659 7.58155 31.1898 9.24066C33.2432 10.3373 34.4455 12.5384 34.233 14.8793Z" fill="#3E4347"/>
<path d="M27.3939 17.2829C28.9177 17.2829 30.153 16.0476 30.153 14.5238C30.153 12.9999 28.9177 11.7646 27.3939 11.7646C25.8701 11.7646 24.6348 12.9999 24.6348 14.5238C24.6348 16.0476 25.8701 17.2829 27.3939 17.2829Z" fill="#3E4347"/>
<path d="M28.8464 13.0655C28.5158 12.7348 28.0607 12.6539 27.83 12.8847C27.5992 13.1154 27.6801 13.5705 28.0107 13.9011C28.3414 14.2317 28.7964 14.3127 29.0272 14.0819C29.258 13.8512 29.177 13.3961 28.8464 13.0655Z" fill="white"/>
<path d="M12.389 17.2826C13.9128 17.2826 15.1481 16.0473 15.1481 14.5235C15.1481 12.9997 13.9128 11.7644 12.389 11.7644C10.8652 11.7644 9.62988 12.9997 9.62988 14.5235C9.62988 16.0473 10.8652 17.2826 12.389 17.2826Z" fill="#3E4347"/>
<path d="M13.842 13.065C13.5114 12.7344 13.0563 12.6534 12.8256 12.8842C12.5948 13.1149 12.6757 13.57 13.0064 13.9006C13.337 14.2313 13.7921 14.3122 14.0228 14.0814C14.2536 13.8507 14.1726 13.3956 13.842 13.065Z" fill="white"/>
<path d="M15.3916 3.65984C15.4359 3.51893 8.88471 3.69393 6.9381 7.33373C6.44378 7.32692 11.2404 -2.0459 15.3916 3.65984Z" fill="#3E4347"/>
<path d="M24.1262 3.65984C24.0819 3.51893 30.6331 3.69393 32.5797 7.33373C33.074 7.32692 28.2774 -2.0459 24.1262 3.65984Z" fill="#3E4347"/>
<path d="M18.7675 30.3907C15.0186 30.3907 13.3981 28.3588 12.6492 30.5111C12.5049 30.9248 12.4652 31.3395 12.4992 31.7475C14.5027 33.3134 17.0209 34.2521 19.7641 34.2521C22.5062 34.2521 25.0244 33.31 27.0301 31.7395C27.063 31.3339 27.0221 30.9214 26.8789 30.51C26.1301 28.3588 22.5164 30.3907 18.7675 30.3907Z" fill="#E24B4B"/>
</svg>
