<svg width="40" height="40" viewBox="0 0 40 40" fill="none" xmlns="http://www.w3.org/2000/svg">
<path d="M20.0002 38.1819C30.0417 38.1819 38.182 30.0416 38.182 20C38.182 9.95851 30.0417 1.81824 20.0002 1.81824C9.95863 1.81824 1.81836 9.95851 1.81836 20C1.81836 30.0416 9.95863 38.1819 20.0002 38.1819Z" fill="#FFD93B"/>
<path d="M38.1819 20.0001C38.1819 30.0455 30.0399 38.1819 20.0001 38.1819C14.2842 38.1819 9.18191 35.5455 5.84668 31.4149C8.966 33.9376 12.9376 35.4433 17.2614 35.4433C27.3012 35.4433 35.4433 27.3069 35.4433 17.2614C35.4433 12.9376 33.9376 8.966 31.4149 5.84668C35.5398 9.18191 38.1819 14.2842 38.1819 20.0001Z" fill="#F4C534"/>
<path d="M19.2946 17.4489C19.2946 21.2728 16.6355 24.3693 13.3571 24.3693C10.0673 24.3693 7.4082 21.2728 7.4082 17.4489C7.4082 13.625 10.0673 10.5284 13.3571 10.5284C16.6355 10.5284 19.2946 13.625 19.2946 17.4489Z" fill="white"/>
<path d="M15.1219 20.2887C16.6419 20.2887 17.8742 18.9257 17.8742 17.2444C17.8742 15.5631 16.6419 14.2001 15.1219 14.2001C13.6019 14.2001 12.3696 15.5631 12.3696 17.2444C12.3696 18.9257 13.6019 20.2887 15.1219 20.2887Z" fill="#3E4347"/>
<path d="M16.7886 16.241C16.6273 16.4933 16.2273 16.5399 15.9023 16.3285C15.5761 16.1285 15.4398 15.7546 15.6011 15.5024C15.7534 15.2387 16.1511 15.2024 16.4773 15.4137C16.8023 15.6149 16.9386 15.9887 16.7886 16.241Z" fill="#5A5F63"/>
<path d="M21.0444 17.4489C21.0444 21.2728 23.7035 24.3693 26.9819 24.3693C30.2717 24.3693 32.9308 21.2728 32.9308 17.4489C32.9308 13.625 30.2717 10.5284 26.9819 10.5284C23.7035 10.5284 21.0444 13.625 21.0444 17.4489Z" fill="white"/>
<path d="M25.2171 20.2887C26.7372 20.2887 27.9694 18.9257 27.9694 17.2444C27.9694 15.5631 26.7372 14.2001 25.2171 14.2001C23.6971 14.2001 22.4648 15.5631 22.4648 17.2444C22.4648 18.9257 23.6971 20.2887 25.2171 20.2887Z" fill="#3E4347"/>
<path d="M26.8833 16.241C26.722 16.4933 26.322 16.5399 25.997 16.3285C25.6708 16.1285 25.5345 15.7546 25.6958 15.5024C25.8481 15.2387 26.2458 15.2024 26.572 15.4137C26.8981 15.6149 27.0345 15.9887 26.8833 16.241Z" fill="#5A5F63"/>
<path d="M25.6307 29.4717C24.7057 27.8024 23.3148 26.299 20.7807 26.299C18.2466 26.299 15.2932 27.8024 14.3682 29.4717C17.1761 27.5785 20.9295 27.5785 25.6307 29.4717Z" fill="#3E4347"/>
</svg>
