<svg width="18" height="18" viewBox="0 0 18 18" fill="none" xmlns="http://www.w3.org/2000/svg">
<path d="M11.6025 3.59998C14.1971 3.59998 14.4001 3.80302 14.4001 6.39718V11.6197C14.4001 14.198 14.1985 14.4 11.6198 14.4H6.38038C3.8017 14.4 3.6001 14.198 3.6001 11.6197V6.38026C3.6001 3.80158 3.8017 3.59998 6.38038 3.59998H11.6025ZM7.11766 11.97V7.57654H5.75218V11.97H7.11766ZM6.43546 6.94798C6.8743 6.94798 7.23106 6.59122 7.23106 6.15166C7.23106 5.71282 6.8743 5.35606 6.43546 5.35606C5.99554 5.35606 5.63914 5.71246 5.63914 6.15166C5.63914 6.59086 5.99518 6.94798 6.43546 6.94798ZM12.2401 11.97V9.56049C12.2401 8.37753 11.9845 7.46746 10.6021 7.46746C9.9379 7.46746 9.49258 7.83178 9.31042 8.17702H9.2917V7.57654H7.98166V11.97H9.34606V9.7963C9.34606 9.22318 9.45514 8.66842 10.1658 8.66842C10.866 8.66842 10.8753 9.32398 10.8753 9.83338V11.97H12.2401Z" fill="#D9D9D9"/>
</svg>
