<svg width="304" height="382" viewBox="0 0 304 382" fill="none" xmlns="http://www.w3.org/2000/svg">
<path d="M271.759 280.182C281.668 280.182 289.701 272.149 289.701 262.241C289.701 252.332 281.668 244.3 271.759 244.3C261.851 244.3 253.818 252.332 253.818 262.241C253.818 272.149 261.851 280.182 271.759 280.182Z" fill="#FFD93B"/>
<path d="M283.358 266.676C282.315 272.137 277.516 276.252 271.764 276.252C266 276.252 261.201 272.137 260.17 266.676C260.068 266.149 260.562 265.7 261.077 265.846C268.187 267.809 275.307 267.798 282.45 265.835C282.966 265.7 283.46 266.149 283.358 266.676Z" fill="#3E4347"/>
<path d="M262.298 266.14C264.006 269.418 267.393 270.382 271.718 270.382C276.027 270.382 279.398 269.421 281.113 266.166C274.831 267.675 268.559 267.67 262.298 266.14Z" fill="white"/>
<path d="M289.7 262.241C289.7 272.153 281.666 280.182 271.759 280.182C266.119 280.182 261.084 277.581 257.793 273.505C260.871 275.994 264.79 277.48 269.057 277.48C278.964 277.48 286.998 269.451 286.998 259.539C286.998 255.271 285.513 251.352 283.023 248.275C287.093 251.566 289.7 256.6 289.7 262.241Z" fill="#F4C534"/>
<path d="M270.062 255.228C270.062 259.124 265.445 263.96 260.721 262.143C258.562 261.302 256.997 259.259 256.753 256.941C256.529 254.387 257.828 251.973 260.062 250.77C263.712 248.917 270.062 250.88 270.062 255.228Z" fill="white"/>
<path d="M282.807 262.143C280.493 263.033 278.154 262.395 276.285 260.749C273.286 258.129 271.994 253.649 275.924 251.249C278.168 249.887 281.329 249.685 283.435 250.77C288.151 253.284 287.849 260.181 282.807 262.143Z" fill="white"/>
<path d="M288.286 249.699H287.691C286.042 249.699 284.372 249.603 282.776 249.199C279.83 248.443 276.35 249.347 274.403 251.369C273.776 252.008 272.893 252.316 271.999 252.316H271.552C270.648 252.316 269.754 252.007 269.127 251.359C267.148 249.337 263.646 248.443 260.732 249.199C259.146 249.603 257.497 249.699 255.87 249.699H255.232C254.838 249.699 254.519 250.018 254.519 250.422V252.646C254.519 252.934 254.71 253.157 254.966 253.285C255.295 253.454 255.519 253.795 255.519 254.19C255.519 254.273 255.509 254.369 255.476 254.454C253.529 261.667 262.019 267.454 268.029 261.657C269.295 260.402 270.21 258.954 270.625 257.317C270.752 256.807 271.232 256.476 271.764 256.476C272.285 256.476 272.774 256.805 272.891 257.317C273.306 258.956 274.22 260.402 275.486 261.657C281.466 267.434 289.986 261.72 288.04 254.444C287.913 253.966 288.147 253.497 288.55 253.285C288.806 253.157 288.997 252.922 288.997 252.636V250.422C288.999 250.017 288.68 249.699 288.286 249.699ZM266.882 260.348C262.754 263.996 257.733 261.092 257.286 256.879C257.074 254.538 258.276 252.337 260.318 251.241C263.563 249.58 269.532 251.283 269.532 255.23C269.531 257.199 268.338 259.082 266.882 260.348ZM286.233 256.879C285.786 261.092 280.775 263.996 276.636 260.348C275.19 259.081 273.998 257.198 273.998 255.23C273.998 251.283 279.966 249.582 283.19 251.241C285.243 252.337 286.445 254.538 286.233 256.879Z" fill="#3E4347"/>
<path d="M279.394 259.283C280.918 259.283 282.153 258.047 282.153 256.524C282.153 255 280.918 253.765 279.394 253.765C277.87 253.765 276.635 255 276.635 256.524C276.635 258.047 277.87 259.283 279.394 259.283Z" fill="#3E4347"/>
<path d="M280.846 255.066C280.516 254.735 280.061 254.654 279.83 254.885C279.599 255.116 279.68 255.571 280.011 255.901C280.341 256.232 280.796 256.313 281.027 256.082C281.258 255.851 281.177 255.396 280.846 255.066Z" fill="white"/>
<path d="M264.389 259.283C265.913 259.283 267.148 258.047 267.148 256.524C267.148 255 265.913 253.765 264.389 253.765C262.865 253.765 261.63 255 261.63 256.524C261.63 258.047 262.865 259.283 264.389 259.283Z" fill="#3E4347"/>
<path d="M265.842 255.065C265.511 254.734 265.056 254.653 264.826 254.884C264.595 255.115 264.676 255.57 265.006 255.901C265.337 256.231 265.792 256.312 266.023 256.081C266.254 255.851 266.173 255.396 265.842 255.065Z" fill="white"/>
<path d="M267.392 245.66C267.436 245.519 260.885 245.694 258.938 249.334C258.444 249.327 263.24 239.954 267.392 245.66Z" fill="#3E4347"/>
<path d="M276.126 245.66C276.082 245.519 282.633 245.694 284.58 249.334C285.074 249.327 280.277 239.954 276.126 245.66Z" fill="#3E4347"/>
<path d="M270.767 272.391C267.019 272.391 265.398 270.359 264.649 272.511C264.505 272.925 264.465 273.34 264.499 273.748C266.503 275.314 269.021 276.252 271.764 276.252C274.506 276.252 277.024 275.31 279.03 273.74C279.063 273.334 279.022 272.922 278.879 272.51C278.13 270.359 274.516 272.391 270.767 272.391Z" fill="#E24B4B"/>
<path d="M32.0002 280.182C42.0417 280.182 50.182 272.042 50.182 262C50.182 251.959 42.0417 243.818 32.0002 243.818C21.9586 243.818 13.8184 251.959 13.8184 262C13.8184 272.042 21.9586 280.182 32.0002 280.182Z" fill="#FFD93B"/>
<path d="M50.1819 262C50.1819 272.046 42.0399 280.182 32.0001 280.182C26.2842 280.182 21.1819 277.546 17.8467 273.415C20.966 275.938 24.9376 277.443 29.2614 277.443C39.3012 277.443 47.4433 269.307 47.4433 259.261C47.4433 254.938 45.9376 250.966 43.4149 247.847C47.5398 251.182 50.1819 256.284 50.1819 262Z" fill="#F4C534"/>
<path d="M31.2946 259.449C31.2946 263.273 28.6355 266.369 25.3571 266.369C22.0673 266.369 19.4082 263.273 19.4082 259.449C19.4082 255.625 22.0673 252.528 25.3571 252.528C28.6355 252.528 31.2946 255.625 31.2946 259.449Z" fill="white"/>
<path d="M27.1219 262.289C28.6419 262.289 29.8742 260.926 29.8742 259.244C29.8742 257.563 28.6419 256.2 27.1219 256.2C25.6019 256.2 24.3696 257.563 24.3696 259.244C24.3696 260.926 25.6019 262.289 27.1219 262.289Z" fill="#3E4347"/>
<path d="M28.7886 258.241C28.6273 258.493 28.2273 258.54 27.9023 258.329C27.5761 258.129 27.4398 257.755 27.6011 257.502C27.7534 257.239 28.1511 257.202 28.4773 257.414C28.8023 257.615 28.9386 257.989 28.7886 258.241Z" fill="#5A5F63"/>
<path d="M33.0444 259.449C33.0444 263.273 35.7035 266.369 38.9819 266.369C42.2717 266.369 44.9308 263.273 44.9308 259.449C44.9308 255.625 42.2717 252.528 38.9819 252.528C35.7035 252.528 33.0444 255.625 33.0444 259.449Z" fill="white"/>
<path d="M37.2171 262.289C38.7372 262.289 39.9694 260.926 39.9694 259.244C39.9694 257.563 38.7372 256.2 37.2171 256.2C35.6971 256.2 34.4648 257.563 34.4648 259.244C34.4648 260.926 35.6971 262.289 37.2171 262.289Z" fill="#3E4347"/>
<path d="M38.8833 258.241C38.722 258.493 38.322 258.54 37.997 258.329C37.6708 258.129 37.5345 257.755 37.6958 257.502C37.8481 257.239 38.2458 257.202 38.572 257.414C38.8981 257.615 39.0345 257.989 38.8833 258.241Z" fill="#5A5F63"/>
<path d="M37.6307 271.472C36.7057 269.802 35.3148 268.299 32.7807 268.299C30.2466 268.299 27.2932 269.802 26.3682 271.472C29.1761 269.578 32.9295 269.578 37.6307 271.472Z" fill="#3E4347"/>
<path d="M66 282C66 270.706 68.2245 259.523 72.5464 249.089C76.8683 238.655 83.203 229.175 91.1888 221.189C99.1747 213.203 108.655 206.868 119.089 202.546C129.523 198.224 140.706 196 152 196C163.294 196 174.477 198.224 184.911 202.546C195.345 206.868 204.825 213.203 212.811 221.189C220.797 229.175 227.132 238.655 231.454 249.089C235.776 259.523 238 270.706 238 282L220.8 282C220.8 272.965 219.02 264.019 215.563 255.671C212.105 247.324 207.038 239.74 200.649 233.351C194.26 226.962 186.676 221.895 178.329 218.437C169.981 214.98 161.035 213.2 152 213.2C142.965 213.2 134.019 214.98 125.671 218.437C117.324 221.895 109.74 226.962 103.351 233.351C96.9624 239.74 91.8946 247.324 88.4371 255.671C84.9796 264.019 83.2 272.965 83.2 282L66 282Z" fill="#F4F4F4"/>
<path d="M66 282C66 262.58 72.5726 243.732 84.6482 228.524C96.7237 213.315 113.591 202.641 132.505 198.239C151.42 193.837 171.267 195.966 188.817 204.279C206.367 212.593 220.587 226.602 229.162 244.026L213.73 251.621C206.87 237.681 195.494 226.474 181.454 219.823C167.413 213.173 151.536 211.469 136.404 214.991C121.273 218.513 107.779 227.052 98.1185 239.219C88.4581 251.386 83.2 266.464 83.2 282L66 282Z" fill="#196BB3"/>
</svg>
