<svg width="16" height="16" viewBox="0 0 16 16" fill="none" xmlns="http://www.w3.org/2000/svg">
<path d="M7.09324 0.537808C7.4851 -0.179252 8.5149 -0.179252 8.90676 0.537808L10.0256 2.58505C10.2379 2.97357 10.6741 3.18365 11.1103 3.10741L13.4084 2.70569C14.2134 2.56498 14.8554 3.37011 14.5391 4.12356L13.6361 6.27471C13.4647 6.68294 13.5725 7.15499 13.904 7.44844L15.6509 8.99475C16.2628 9.53635 16.0337 10.5403 15.2474 10.7628L13.0025 11.398C12.5765 11.5185 12.2746 11.8971 12.2519 12.3393L12.1322 14.6692C12.0902 15.4853 11.1624 15.9321 10.4982 15.4561L8.60196 14.097C8.24209 13.8391 7.75791 13.8391 7.39804 14.097L5.50177 15.4561C4.83759 15.9321 3.90978 15.4853 3.86784 14.6692L3.7481 12.3393C3.72538 11.8971 3.4235 11.5185 2.99747 11.398L0.752601 10.7628C-0.0336797 10.5403 -0.26283 9.53635 0.349054 8.99475L2.09601 7.44844C2.42754 7.15499 2.53529 6.68294 2.36391 6.27471L1.46087 4.12356C1.14457 3.37011 1.78664 2.56498 2.59159 2.70569L4.88974 3.10741C5.32588 3.18365 5.76212 2.97357 5.97444 2.58505L7.09324 0.537808Z" fill="#149BFC"/>
</svg>
